<svg xmlns="http://www.w3.org/2000/svg" width="48" height="48" viewBox="0 0 48 48">
  <g id="Group_13591" data-name="Group 13591" transform="translate(-1466 -1899)">
    <rect id="Rectangle_1609" data-name="Rectangle 1609" width="48" height="48" rx="12" transform="translate(1466 1899)" fill="#c9d9ea" opacity="0.36"/>
    <rect id="Rectangle_1608" data-name="Rectangle 1608" width="38" height="38" rx="8" transform="translate(1471 1904)" fill="#20c5ba"/>
    <path id="Path_133688" data-name="Path 133688" d="M17,21V19a4,4,0,0,0-4-4H5a4,4,0,0,0-4,4v2" transform="translate(1478 1911)" fill="none" stroke="#fff" stroke-linecap="round" stroke-linejoin="round" stroke-width="2"/>
    <circle id="Ellipse_1351" data-name="Ellipse 1351" cx="4" cy="4" r="4" transform="translate(1483 1914)" fill="none" stroke="#fff" stroke-linecap="round" stroke-linejoin="round" stroke-width="2"/>
    <path id="Path_133689" data-name="Path 133689" d="M23,21V19a4,4,0,0,0-3-3.87" transform="translate(1478 1911)" fill="none" stroke="#fff" stroke-linecap="round" stroke-linejoin="round" stroke-width="2"/>
    <path id="Path_133690" data-name="Path 133690" d="M16,3.13a4,4,0,0,1,0,7.75" transform="translate(1478 1911)" fill="none" stroke="#fff" stroke-linecap="round" stroke-linejoin="round" stroke-width="2"/>
  </g>
</svg>
