<svg xmlns="http://www.w3.org/2000/svg" width="36.892" height="25.482" viewBox="0 0 36.892 25.482">
  <path id="Path_7050" data-name="Path 7050" d="M41.173,75.722a15.07,15.07,0,0,1-11.139-4.478c-1.469-1.465-2.9-2.974-4.424-4.376-.767-.7-.682-1.132.034-1.782,1.172-1.064,2.256-2.223,3.379-3.341,1.02-1.015,1.021-1.015,2.084.044,3.1,3.089,6.18,6.2,9.3,9.263a7.646,7.646,0,0,0,9.946.814c.785-.568.934-.964.155-1.72-2.978-2.889-5.878-5.857-8.842-8.761-.579-.567-.672-.9-.038-1.521q4.656-4.545,9.213-9.19c.624-.636.953-.534,1.52.041q4.527,4.593,9.137,9.106c.664.647.58,1-.034,1.6-3.312,3.249-6.584,6.538-9.868,9.816A14.639,14.639,0,0,1,41.173,75.722Z" transform="translate(-25.069 -50.24)" fill="#19b2a8"/>
</svg>
