<svg xmlns="http://www.w3.org/2000/svg" width="37.127" height="25.612" viewBox="0 0 37.127 25.612">
  <path id="Path_7049" data-name="Path 7049" d="M125,132.05a15.15,15.15,0,0,1,10.567,4.269c1.668,1.584,3.248,3.26,4.907,4.854.544.523.517.863-.013,1.368-1.337,1.275-2.657,2.573-3.921,3.919-.569.606-.907.64-1.516.019q-4.759-4.842-9.606-9.6a7.6,7.6,0,0,0-9.936-.86c-.761.544-.881.9-.145,1.615,3,2.918,5.933,5.909,8.92,8.843.541.532.627.856.037,1.434q-4.728,4.633-9.377,9.346c-.512.517-.829.546-1.357.012q-4.694-4.748-9.453-9.43c-.5-.493-.472-.79.013-1.269,3.543-3.5,7.009-7.075,10.6-10.52A14.64,14.64,0,0,1,125,132.05Z" transform="translate(-103.738 -132.05)" fill="#19b2a8"/>
</svg>
